<svg id="Capa_1" data-name="Capa 1" xmlns="http://www.w3.org/2000/svg" xmlns:xlink="http://www.w3.org/1999/xlink" viewBox="0 0 76.41 168.21"><defs><style>.cls-1{fill:none;}.cls-2,.cls-3{fill:#e6007e;}.cls-3{stroke:#1d1d1b;stroke-miterlimit:22.93;stroke-width:0.25px;}.cls-4{clip-path:url(#clip-path);}.cls-5{fill:#1d1d1b;}.cls-6{isolation:isolate;}</style><clipPath id="clip-path" transform="translate(-0.01 -0.14)"><polygon class="cls-1" points="76.62 168.27 30.92 173.1 10.88 67.06 56.58 62.23 76.62 168.27"/></clipPath></defs><title>Kirol Kluba Mungia abajo  </title><path class="cls-2" d="M34.47,37.13a12.38,12.38,0,0,0-2-3v0a22.48,22.48,0,0,0-5.64-3.89h0a10.55,10.55,0,0,0-1.25-.43.47.47,0,0,1-.32-.54,14.26,14.26,0,0,0,.16-2.38,10.49,10.49,0,0,0-.71-3.34v-.07a10.37,10.37,0,0,0-2.61-3.65,10.11,10.11,0,0,0-10.54-1,5.22,5.22,0,0,1-2.35.39,3.67,3.67,0,0,1-2-.39C6.23,18.17,6.42,18,5.84,17a9.77,9.77,0,0,1-1.32-5,4,4,0,0,1,.79-1.9c.51-1,.87-2,1.34-3h0A19.58,19.58,0,0,0,7.52,4a3.22,3.22,0,0,1,.1-.54A8.18,8.18,0,0,0,7.7,2.32v-1a2.2,2.2,0,0,0,0-.43C7.6.5,7.33.1,7.19.14S7,.86,7.06,1.26a13.66,13.66,0,0,1-.84,3.59c-.13.33-.24.58-.27.63A9.4,9.4,0,0,1,4.3,8a9.1,9.1,0,0,0-1.89,4.75v.06a16.48,16.48,0,0,0,.3,3.31.6.6,0,0,0,0,.1,9.38,9.38,0,0,0,1.07,2.84,3.73,3.73,0,0,0,1.64,1.54,8.11,8.11,0,0,0,4.36,1.14c1.22,0,2.31-.67,3.52-.7a16.15,16.15,0,0,1,4.1.38h.08c.56.23,1.11.51,1.67.74h0a7.93,7.93,0,0,1,2.71,2.6v.06a11.86,11.86,0,0,1,1.31,3.53.46.46,0,0,1-.38.53h-.1a5.09,5.09,0,0,1-1-.17A8.81,8.81,0,0,0,13,32.6l0,.07a10.3,10.3,0,0,0-1.37,1.46,5.1,5.1,0,0,0-.94,4,2.57,2.57,0,0,0,1.28,1.52H12a6.18,6.18,0,0,0,5.77-.31,9.19,9.19,0,0,0,1.91-1.45,50.66,50.66,0,0,0,4.24-5.26.42.42,0,0,1,.48-.18,16.24,16.24,0,0,1,2,1,16,16,0,0,1,6.14,6.19v.09a12,12,0,0,1,.5,6.06,13.79,13.79,0,0,1-1,3.33,15.49,15.49,0,0,1-1.81,3.44h0a11.33,11.33,0,0,1-2.49,2.83,27,27,0,0,1-4.87,3A36.46,36.46,0,0,1,17,60.59h0a14.68,14.68,0,0,1-5.39.32A13.44,13.44,0,0,1,7,59.54,2.12,2.12,0,0,1,5.6,57.46a2.11,2.11,0,0,0,1.68,1.6c.85.31,1.21-.65,1.66-1.21a.41.41,0,0,1,.17-.13c.39-.15.83-.22,1.06-.62.53-.77.91-2.2-.11-2.76a2.28,2.28,0,0,0-1.24-.51.48.48,0,0,1-.14-.78,5.07,5.07,0,0,0,.69-.5C11.31,51,12.12,48.44,12.46,46A11.58,11.58,0,0,0,11,39.33h0C9,35.74,1.2,32.51.13,34c-2.35,3.08,30,34.7,30.16,34.49S.53,37.84,2.66,35.05c.71-.91,4.68.37,6.84,3a9.49,9.49,0,0,1,2,4.93A10.62,10.62,0,0,1,10,49.83l-.06.07a21.94,21.94,0,0,1-2.69,2.46,7,7,0,0,0-2.17,3.71.46.46,0,0,1-.23.3,2.67,2.67,0,0,0-1.29,1.37A3.33,3.33,0,0,0,4,60.28c.23.72.89,1.1,1.43,1.54h0a11.87,11.87,0,0,0,5.8,1.63h0a16.51,16.51,0,0,0,5.46-.88c1.13-.25,2.11-1,3.23-1.24a16.93,16.93,0,0,0,2.22-1h0a26,26,0,0,0,3.12-2h0c2.33-1.62,4-4,5.85-6.12h0c1.5-2.15,3.06-4.37,3.63-7h0A10.69,10.69,0,0,0,34.47,37.13Zm-12.3-5.08c-.27,1.16-.54,2.33-.84,3.48a.49.49,0,0,1-.09.19,7.11,7.11,0,0,1-2.76,1.74c-1.8.69-4.15.66-5.52-1a.52.52,0,0,1-.1-.18A5.12,5.12,0,0,1,13,33.21c.29-.78,1.12-1,1.78-1.34a10,10,0,0,1,4.5-.8h0c.82.1,2.45.36,2.45.36S22.23,31.8,22.17,32.05ZM7.84,55.65a1.59,1.59,0,0,1,1.07,1,.54.54,0,0,1,.09.2.44.44,0,0,1-.7.43,4.82,4.82,0,0,1-.94-.91.46.46,0,0,1,.48-.72Z" transform="translate(-0.01 -0.14)"/><path class="cls-3" d="M39.2,58.8" transform="translate(-0.01 -0.14)"/><path class="cls-3" d="M39.2,58.8" transform="translate(-0.01 -0.14)"/><g class="cls-4"><path class="cls-5" d="M28.65,65.18c.17,0,.56.67.76,1.36.28,1-.16,1.5,0,2.24.36,1.35,1.34,2.36,2.59,3.63s2.4,2.52,3.66,3.66a2.6,2.6,0,0,0,1.65.63c1.83,0,3.64-.08,5.47-.06,1.1,0,1.91.66,2.54,2.17a59.48,59.48,0,0,1,3.69,11,5.19,5.19,0,0,0,1,1.9,43.54,43.54,0,0,1,3.76,4.75,22.34,22.34,0,0,1,1.65,18.59,46.76,46.76,0,0,1-2.71,5.86c2,3.9,3.84,7.48,5.67,11.07,2.56,5,4.14,10.6,6.66,15.71a90.56,90.56,0,0,0,8.91,15,27,27,0,0,1,2.38,4.1c.2.38,0,1,0,1.56a3.69,3.69,0,0,1-1.06-.43c-1.72-1.32-3.13-3.4-5.16-4-.88-.25-1.35-1.29-1.45-2.58a5.71,5.71,0,0,0-.84-2.45,18,18,0,0,0-3-3.84,20.13,20.13,0,0,1-6.3-10.28A22.18,22.18,0,0,0,54.06,136c-2.3-2.58-4.43-5.43-6.67-8.12a16.49,16.49,0,0,1-3.44-8,2.24,2.24,0,0,0-.42-1.11c-1.76-1.42-3.49-3.14-5.35-4.06a17.69,17.69,0,0,1-5.2-4.57A52.43,52.43,0,0,0,21,100a13.28,13.28,0,0,1-3.25-3,15,15,0,0,1-1.66-2.06c0-.25.32-.38.73-.42a8.8,8.8,0,0,1,3.47.64,8.33,8.33,0,0,1,3,2.21c1.54,1.46,2.94,3.21,4.74,4.07,1.24.59,2.47,1.26,3.69,1.95,2,1.11,4.06,1.94,5.51,4.46v.1a7.48,7.48,0,0,1,.94.44c1.65.87,3.4.67,5.09.92a1,1,0,0,0,.25,0,1.51,1.51,0,0,0,.77-.34c1-.85,2-1.78,3.23-2.9-.3-2.78-.85-5.91-3.35-8.21-.13.3-.22.55-.33.79A3.48,3.48,0,0,1,41.1,101a4.45,4.45,0,0,1-3.23-1.26c-2.49-2.09-3-4.19-1.85-7.44a1.65,1.65,0,0,0,.09-1c-.49-1.48-.06-2.12.91-2.5a4,4,0,0,0,1.44-1.16,1.62,1.62,0,0,0,.31-1.23,28.11,28.11,0,0,0-3.14-5.14,2,2,0,0,0-1.75-.39,4.51,4.51,0,0,0-1,.17,2.16,2.16,0,0,0-1.34,1.33c-.71,1.78-1.28,3.68-2,5.76-.92-2.49,0-4.39,0-6.42L28,81.21l-.12-.52,5.35-2.64C29,72.13,26,67.81,25.83,67.61a1.27,1.27,0,0,1-.15-.36.93.93,0,0,1,0-.18,1.34,1.34,0,0,1,.36-.76,5.51,5.51,0,0,1,.55-.56.66.66,0,0,1,.39-.24.31.31,0,0,1,.15,0c.38.14.44.9.9,1.22a.72.72,0,0,0,.49.12,1,1,0,0,0,.25-.06,3.26,3.26,0,0,0-.08-.49v-.36a1,1,0,0,1,.07-.81h0" transform="translate(-0.01 -0.14)"/></g><g class="cls-6"><g class="cls-6"><path class="cls-5" d="M32.53,53.56a24.67,24.67,0,0,1,2.56-4.86c.18-.24.32-.3.48-.12a2.09,2.09,0,0,1,0,2.18c-.42.88-1.26,2.24-1.68,3.24-.48,1.16-.44,1.94.2,1.9.9,0,2-1.36,2.6-2.74.1-.18.24-.16.32,0a1.42,1.42,0,0,1-.14,1.24,3.59,3.59,0,0,1-3,2.08C32.35,56.48,32,55.2,32.53,53.56ZM37,48.34a.72.72,0,0,1-1.12-.3,1.24,1.24,0,0,1,.1-1.48c.32-.34.9-.1,1.16.44A1.21,1.21,0,0,1,37,48.34Z" transform="translate(-0.01 -0.14)"/></g><g class="cls-6"><path class="cls-5" d="M37.71,47.88c-.2-.28-.08-.42.22-.4a11.25,11.25,0,0,0,1.66-.08,25.76,25.76,0,0,1,1.52-2.48c.18-.26.38-.24.48,0a2.73,2.73,0,0,1-.26,2.26,1.25,1.25,0,0,1,1.24.6c.14.24.06.38-.24.38a6,6,0,0,0-1.56.08c-.78,1.34-1.92,3.28-2.68,5-.66,1.46-.44,2.7.4,2.74s2-1.38,2.78-2.88c.12-.24.34-.28.42,0a1.67,1.67,0,0,1-.2,1.14c-.26.58-1.58,2.34-3.18,2.28-1.32,0-2.38-1.52-1.42-3.82.42-1,1.26-2.68,2.12-4.26A1.65,1.65,0,0,1,37.71,47.88Z" transform="translate(-0.01 -0.14)"/></g><g class="cls-6"><path class="cls-5" d="M43.33,49.18c-.24,0-1,.72-1.64,2.06-.08.18-.26.2-.32,0a1.75,1.75,0,0,1,.12-1.08c.38-1,1.54-2,2.54-1.8.62.12.88.52,1.06,1.4.1.48.2,1.08.28,1.72a19,19,0,0,0,3-2.94c.2-.26.4-.28.4,0a3.26,3.26,0,0,1-1.08,2,20.64,20.64,0,0,1-2.18,1.9c.14.84.24,1.66.34,2.18.16.8.4,1.08.64,1.1.74,0,1.6-1.42,2.18-2.64.08-.18.24-.2.3,0a1.61,1.61,0,0,1-.18,1.26,3.43,3.43,0,0,1-2.64,2.1c-1.06,0-1.62-.62-1.86-2.28,0-.12,0-.34-.08-.58a19.85,19.85,0,0,0-2.76,2.74c-.16.18-.5.28-.46-.06a3.67,3.67,0,0,1,1.2-2.08,18.5,18.5,0,0,1,1.88-1.66C43.85,51.08,43.53,49.2,43.33,49.18Z" transform="translate(-0.01 -0.14)"/></g><g class="cls-6"><path class="cls-5" d="M48.45,53.56A24.67,24.67,0,0,1,51,48.7c.18-.24.32-.3.48-.12a2.09,2.09,0,0,1,0,2.18c-.42.88-1.26,2.24-1.68,3.24-.48,1.16-.44,1.94.2,1.9.9,0,2-1.36,2.6-2.74.1-.18.24-.16.32,0a1.42,1.42,0,0,1-.14,1.24,3.59,3.59,0,0,1-3,2.08C48.27,56.48,47.89,55.2,48.45,53.56Zm4.46-5.22a.72.72,0,0,1-1.12-.3,1.24,1.24,0,0,1,.1-1.48c.32-.34.9-.1,1.16.44A1.21,1.21,0,0,1,52.91,48.34Z" transform="translate(-0.01 -0.14)"/></g><g class="cls-6"><path class="cls-5" d="M59.53,48.46q.27-.39.48-.12a2.18,2.18,0,0,1,0,2.22c-.44.9-1.44,2.4-1.92,3.46s-.52,2,.16,1.94,1.92-1.4,2.62-2.78c.1-.18.24-.2.32,0A1.79,1.79,0,0,1,61,54.4a3.59,3.59,0,0,1-2.88,2.14,1.55,1.55,0,0,1-1.64-1.64A3.5,3.5,0,0,1,54,56.46c-1.86,0-2.24-2.54-.58-5s3.2-3.26,4.2-3.26a1.22,1.22,0,0,1,1.22,1.44C59.07,49.2,59.31,48.78,59.53,48.46Zm-1.6.82c-.64-.06-2.1,1.24-3.2,3s-1.32,3.48-.54,3.5,1.86-1.26,2.88-3C58.33,50.58,58.51,49.34,57.93,49.28Z" transform="translate(-0.01 -0.14)"/><path class="cls-5" d="M65.89,48.1c.76-.26,1.24,0,1.64.88a1.9,1.9,0,0,1-.42,2.34,6.53,6.53,0,0,1-2.78,1.62c.08,1.64.64,2.78,1.4,2.86s1.92-1.46,2.52-2.7c.12-.24.3-.26.4,0a1.51,1.51,0,0,1-.24,1.22,3.55,3.55,0,0,1-3,2.1c-1.4,0-2.58-1.16-2.54-3.86,0-.36,0-.42.42-.54,2.48-.82,3.8-2.56,3.5-3.08-.22-.36-1.1-.14-2.16.68-1.5,1.14-2.4,2.9-3.94,6.58-.06.16-.22.2-.36,0-.3-.34-.4-1,0-2.2A61.74,61.74,0,0,1,66,43.2c.18-.24.38-.26.5,0,.3.6.26,1.4-.58,2.86-.48.82-1.26,2.22-1.8,3.2A4.87,4.87,0,0,1,65.89,48.1Z" transform="translate(-0.01 -0.14)"/></g></g><g class="cls-6"><g class="cls-6"><path class="cls-5" d="M38.3,64.63c0,.07-.07.08-.12,0s-.17-.36,0-.79A24.38,24.38,0,0,1,40,60.19c.06-.09.12-.08.17,0s.13.51-.17,1.05c-.19.34-.42.76-.68,1.25A20.84,20.84,0,0,0,42,60.15c.05-.06.11,0,.14,0a.87.87,0,0,1-.22.76,12.25,12.25,0,0,1-2.28,2,8.07,8.07,0,0,1,.51.9.77.77,0,0,1,0,.8c0,.05-.09.05-.13,0A14.11,14.11,0,0,0,39,63C38.79,63.53,38.54,64.07,38.3,64.63Z" transform="translate(-0.01 -0.14)"/></g><g class="cls-6"><path class="cls-5" d="M44.26,61.82c.09-.06.16-.09.22,0s.3.49.09.73a4.23,4.23,0,0,0-.81,1.26c-.13.39-.05.69.18.7s.66-.46.89-1c0-.07.08-.07.11,0a.64.64,0,0,1,0,.47,1.16,1.16,0,0,1-1,.73c-.55,0-.77-.5-.58-1.09a4.37,4.37,0,0,1,.92-1.38,1.62,1.62,0,0,1-.89.29c-.45,1-1.17,2.08-2,2.17-.55.06-.7-.45-.51-1a8,8,0,0,1,.93-1.75c.06-.09.12-.11.17,0a.8.8,0,0,1,0,.79c-.14.32-.43.73-.62,1.18s-.15.68.08.66c.47-.06,1.22-.89,1.63-2-.55-.21.15-1.19.45-1.2s.14.45,0,.9A1.79,1.79,0,0,0,44.26,61.82Zm-1.78-.09c-.09.11-.3.09-.4-.11a.45.45,0,0,1,0-.53c.12-.12.32,0,.42.16A.47.47,0,0,1,42.48,61.73Z" transform="translate(-0.01 -0.14)"/><path class="cls-5" d="M47.89,64.45c.34,0,.84-.49,1.12-1,0-.09.12-.1.15,0a.69.69,0,0,1-.07.44,1.54,1.54,0,0,1-1.19.79c-.48,0-.76-.35-.59-1.12,0-.1,0-.19.07-.28h-.17l-.25,0a2.12,2.12,0,0,1-1.09,1.38.78.78,0,0,1-.92-.3,1.53,1.53,0,0,1,.12-1.62,1.69,1.69,0,0,1,1.14-.94.48.48,0,0,1,.49.24c.17.23.37.27.34.79a2.1,2.1,0,0,1,0,.27h.42a7.85,7.85,0,0,1,1.69-2.84c.1-.11.22-.13.31,0a.76.76,0,0,1,.16.79,3.9,3.9,0,0,1-.68,1.26,2.83,2.83,0,0,1-1,.85C47.65,63.81,47.57,64.43,47.89,64.45Zm-1.84-2.16a2.4,2.4,0,0,0-.56.67c-.3.54-.4,1.21-.22,1.37s.64-.09,1-.74a4.33,4.33,0,0,0,.24-.55A1,1,0,0,1,46.05,62.29Zm.58,0c0-.23-.18-.19-.22,0a.63.63,0,0,0,.16.52A1.4,1.4,0,0,0,46.63,62.28Zm2.2-.29c.32-.46.6-1.09.51-1.16a5.54,5.54,0,0,0-1.12,1.65l-.15.31A3.2,3.2,0,0,0,48.83,62Z" transform="translate(-0.01 -0.14)"/><path class="cls-5" d="M50.61,64.63c0,.07-.07.08-.12,0s-.17-.36,0-.79a24.42,24.42,0,0,1,1.86-3.67c.07-.09.12-.08.17,0s.13.51-.17,1.05l-.68,1.25a20.8,20.8,0,0,0,2.64-2.35c.05-.06.11,0,.14,0a.88.88,0,0,1-.22.76,12.27,12.27,0,0,1-2.28,2,7.92,7.92,0,0,1,.51.9.77.77,0,0,1,0,.8c0,.05-.09.05-.13,0A14,14,0,0,0,51.35,63C51.1,63.53,50.85,64.07,50.61,64.63Z" transform="translate(-0.01 -0.14)"/></g><g class="cls-6"><path class="cls-5" d="M54,64.45c.35,0,.85-.49,1.13-1,.05-.09.13-.1.16,0a.65.65,0,0,1-.07.45,1.59,1.59,0,0,1-1.2.8c-.5,0-.76-.36-.6-1.14a7.51,7.51,0,0,1,1.82-3.32c.11-.12.21-.13.31,0a.74.74,0,0,1,.17.79A4.17,4.17,0,0,1,54,63.12C53.73,63.83,53.65,64.43,54,64.45Zm1.47-3.65a5.41,5.41,0,0,0-1.12,1.66,3.79,3.79,0,0,0-.17.35A3.35,3.35,0,0,0,55.45,60.8Z" transform="translate(-0.01 -0.14)"/></g><g class="cls-6"><path class="cls-5" d="M55.2,64.66c-.51,0-.53-.57-.37-1a7.74,7.74,0,0,1,1-1.84.11.11,0,0,1,.19,0c.16.24.12.56-.14,1a7.36,7.36,0,0,0-.56,1.06c-.15.35-.13.61,0,.63s.68-.48,1.07-1.11.66-1.23.89-1.54c.07-.1.12-.12.18,0a.8.8,0,0,1,0,.81c-.16.32-.52.86-.68,1.23s-.16.71.1.7.67-.49,1-1c0-.06.1-.07.13,0a.63.63,0,0,1-.06.45,1.38,1.38,0,0,1-1.08.77.56.56,0,0,1-.6-.71C56,64.32,55.6,64.68,55.2,64.66Z" transform="translate(-0.01 -0.14)"/></g><g class="cls-6"><path class="cls-5" d="M58.75,64.64a.76.76,0,0,1-.76-.51l-.21.47c0,.07-.07.08-.12,0s-.18-.35,0-.79a30.07,30.07,0,0,1,2.1-4c.06-.09.12-.09.18,0s.11.53-.19,1.07c-.11.2-.42.7-.64,1.09a1,1,0,0,1,.62-.3c.61,0,.64.85.25,1.73S59.17,64.64,58.75,64.64Zm.32-2.31a6.33,6.33,0,0,0-.94,1.49c0,.21.11.44.3.48s.58-.16,1-1,.32-1.25.16-1.27S59.29,62.11,59.07,62.33Z" transform="translate(-0.01 -0.14)"/></g><g class="cls-6"><path class="cls-5" d="M62.8,61.78c.07-.09.12-.11.17,0a.78.78,0,0,1,0,.8c-.16.32-.52.86-.69,1.25s-.19.71.06.7.69-.5.94-1c0-.07.09-.07.12,0a.66.66,0,0,1-.06.45,1.3,1.3,0,0,1-1,.77.56.56,0,0,1-.59-.59,1.26,1.26,0,0,1-.9.56c-.67,0-.81-.91-.21-1.79s1.15-1.17,1.51-1.17a.44.44,0,0,1,.44.52C62.63,62,62.72,61.9,62.8,61.78Zm-.58.3c-.23,0-.76.45-1.15,1.09s-.48,1.25-.19,1.26.67-.45,1-1.09C62.37,62.55,62.43,62.1,62.22,62.08Z" transform="translate(-0.01 -0.14)"/></g></g><g class="cls-6"><g class="cls-6"><path class="cls-5" d="M24.54,161.39c-.06.15-.15.15-.26,0s-.38-.75,0-1.66A52.26,52.26,0,0,1,28.91,152c.14-.2.29-.26.49-.09.59.52.76,1,.36,2.25-.49,1.46-1,3.24-1.61,5.37,1.66-2.71,3.88-5,5.55-7.57.14-.21.26-.23.44,0a1.8,1.8,0,0,1,0,2.22,58.07,58.07,0,0,0-3.34,7.23c-.06.15-.12.15-.24,0s-.43-.65-.17-1.66a32.81,32.81,0,0,1,2.19-4.92A43.13,43.13,0,0,0,28,161.31c-.08.15-.15.2-.27.11a1.68,1.68,0,0,1-.58-1.84,38.63,38.63,0,0,1,1.31-5A52.23,52.23,0,0,0,24.54,161.39Z" transform="translate(-0.01 -0.14)"/></g><g class="cls-6"><path class="cls-5" d="M33.75,161.41c-1.08-.08-1.11-1.2-.77-2.2a16.33,16.33,0,0,1,2.1-3.88.23.23,0,0,1,.4,0c.33.5.26,1.19-.29,2.05A15.6,15.6,0,0,0,34,159.6c-.32.75-.27,1.29.08,1.32.59,0,1.43-1,2.25-2.34,1-1.55,1.4-2.6,1.88-3.25.15-.21.26-.24.38-.09a1.68,1.68,0,0,1,0,1.7c-.33.68-1.09,1.82-1.44,2.6s-.33,1.5.21,1.47,1.41-1,2-2.1c.08-.14.21-.15.27,0a1.33,1.33,0,0,1-.14,1,2.91,2.91,0,0,1-2.28,1.63,1.17,1.17,0,0,1-1.26-1.5C35.41,160.69,34.6,161.47,33.75,161.41Z" transform="translate(-0.01 -0.14)"/></g><g class="cls-6"><path class="cls-5" d="M43.75,155.25a1.1,1.1,0,0,1,.59,1.61c-.32.67-1.06,1.79-1.41,2.58s-.3,1.6.24,1.57,1.37-1,1.95-2.1c.08-.14.18-.14.26,0a1.12,1.12,0,0,1-.14,1A2.84,2.84,0,0,1,43,161.48c-1.29,0-1.6-.94-1.16-2.26.5-1.49,1.84-3.1,1.57-3.22s-1,.37-2,1.43a15.14,15.14,0,0,0-2.22,3.86c-.06.14-.15.2-.29.06-.3-.3-.4-.81-.15-1.57a24.13,24.13,0,0,1,2.43-4.48c.11-.17.23-.15.32,0a1.8,1.8,0,0,1,0,1.44C42.22,156,43.25,155.18,43.75,155.25Z" transform="translate(-0.01 -0.14)"/></g><g class="cls-6"><path class="cls-5" d="M48.26,161.83c-.84,2-1.92,4.45-3.15,4.94a.68.68,0,0,1-.88-.32,1.91,1.91,0,0,1-.3-1.88,5.07,5.07,0,0,1,3.25-2.87c.15-.33.29-.7.44-1a2.26,2.26,0,0,1-1.53.76c-1.4,0-1.67-1.9-.44-3.72s2.42-2.45,3.19-2.45a.89.89,0,0,1,.9,1l.5-.84c.12-.21.27-.23.38-.09a1.6,1.6,0,0,1,0,1.67c-.46.91-1.41,2.75-2.05,4.22a7.6,7.6,0,0,0,2.72-2.28c.09-.12.23-.12.26,0a1.48,1.48,0,0,1-.3.88A5.64,5.64,0,0,1,48.26,161.83Zm-3.72,4.09c.2.29,1.4-1.29,2.39-3.6C44.95,163.47,44.28,165.56,44.54,165.92ZM49.06,156c-.47,0-1.58.94-2.42,2.26s-1,2.64-.38,2.66,1.37-.94,2.14-2.28C49.37,157,49.5,156,49.06,156Z" transform="translate(-0.01 -0.14)"/></g><g class="cls-6"><path class="cls-5" d="M51,159.22A18.79,18.79,0,0,1,53,155.52c.14-.18.24-.23.37-.09a1.59,1.59,0,0,1,0,1.66c-.32.67-1,1.7-1.28,2.46s-.33,1.47.15,1.44c.68,0,1.52-1,2-2.08.08-.14.18-.12.24,0a1.08,1.08,0,0,1-.11.94A2.72,2.72,0,0,1,52,161.44C50.89,161.44,50.61,160.46,51,159.22Zm3.39-4a.55.55,0,0,1-.85-.23.94.94,0,0,1,.08-1.12c.24-.26.68-.08.88.33A.92.92,0,0,1,54.42,155.25Z" transform="translate(-0.01 -0.14)"/></g><g class="cls-6"><path class="cls-5" d="M59.45,155.34c.14-.2.26-.23.37-.09a1.66,1.66,0,0,1,0,1.69c-.33.68-1.09,1.82-1.46,2.63s-.39,1.5.12,1.47,1.46-1.06,2-2.11c.08-.14.18-.15.24,0a1.36,1.36,0,0,1-.14.94,2.73,2.73,0,0,1-2.19,1.63,1.18,1.18,0,0,1-1.25-1.25,2.66,2.66,0,0,1-1.9,1.19c-1.41,0-1.7-1.93-.44-3.77s2.43-2.48,3.19-2.48a.93.93,0,0,1,.93,1.09C59.1,155.9,59.28,155.59,59.45,155.34Zm-1.22.62c-.49,0-1.6.94-2.43,2.29s-1,2.64-.41,2.66,1.41-1,2.19-2.29C58.54,157,58.68,156,58.24,156Z" transform="translate(-0.01 -0.14)"/></g></g></svg>